<mxfile host="app.diagrams.net" modified="2024-03-26T02:32:02.617Z" agent="Mozilla/5.0 (Macintosh; Intel Mac OS X 10_15_7) AppleWebKit/605.1.15 (KHTML, like Gecko) Version/17.3 Safari/605.1.15" version="24.1.0" etag="y2kSlgbtJ8onEZ48Dh8w" type="github">
  <diagram name="第 1 页" id="EJHfmpemvV7j7NulvOW9">
    <mxGraphModel>
      <root>
        <mxCell id="0" />
        <mxCell id="1" parent="0" />
      </root>
    </mxGraphModel>
  </diagram>
</mxfile>
